<svg width="35" height="35" viewBox="0 0 35 35" fill="none" xmlns="http://www.w3.org/2000/svg">
<path fill-rule="evenodd" clip-rule="evenodd" d="M17.5 28.4375C14.7171 28.4375 12.8056 28.4344 11.3441 28.2762C9.92358 28.1222 9.18985 27.8429 8.66653 27.4628C8.23321 27.1479 7.85215 26.7668 7.53733 26.3334C7.15711 25.8102 6.87777 25.0765 6.72387 23.6559C6.6989 23.4255 6.6778 23.184 6.65996 22.9295C6.61875 22.3418 6.13909 21.875 5.54985 21.875C4.93069 21.875 4.43144 22.3891 4.47283 23.0068C4.61207 25.0854 4.94957 26.4934 5.7676 27.6192C6.21735 28.2383 6.76173 28.7827 7.38075 29.2324C9.29748 30.625 12.0317 30.625 17.5 30.625C22.9683 30.625 25.7025 30.625 27.6192 29.2324C28.2383 28.7827 28.7827 28.2383 29.2324 27.6192C30.0504 26.4934 30.388 25.0854 30.5271 23.0068C30.5686 22.3891 30.0694 21.875 29.4502 21.875C28.861 21.875 28.3812 22.3418 28.3401 22.9295C28.3223 23.184 28.3011 23.4255 28.2762 23.6559C28.1222 25.0765 27.8429 25.8102 27.4628 26.3334C27.1479 26.7668 26.7668 27.1479 26.3336 27.4628C25.8102 27.8429 25.0765 28.1222 23.6559 28.2762C22.1944 28.4344 20.2829 28.4375 17.5 28.4375ZM5.54985 13.125C6.13909 13.125 6.61875 12.6582 6.65996 12.0704C6.6778 11.816 6.6989 11.5745 6.72387 11.3441C6.87777 9.92356 7.15711 9.18983 7.53733 8.66651C7.85215 8.2332 8.23321 7.85213 8.66653 7.53731C9.18985 7.15709 9.92358 6.87775 11.3441 6.72385C12.8056 6.5655 14.7171 6.5625 17.5 6.5625C20.2829 6.5625 22.1944 6.5655 23.6559 6.72385C25.0765 6.87775 25.8102 7.15709 26.3336 7.53731C26.7668 7.85213 27.1479 8.2332 27.4628 8.66651C27.8429 9.18983 28.1222 9.92356 28.2762 11.3441C28.3011 11.5745 28.3223 11.816 28.3401 12.0704C28.3812 12.6582 28.861 13.125 29.4502 13.125C30.0694 13.125 30.5686 12.611 30.5271 11.9932C30.388 9.91464 30.0504 8.50665 29.2324 7.38073C28.7827 6.76171 28.2383 6.21733 27.6192 5.76758C25.7025 4.375 22.9683 4.375 17.5 4.375C12.0317 4.375 9.29748 4.375 7.38075 5.76758C6.76173 6.21733 6.21735 6.76171 5.7676 7.38073C4.94957 8.50665 4.61207 9.91464 4.47283 11.9932C4.43144 12.611 4.93069 13.125 5.54985 13.125Z" fill="white"/>
<path d="M4.01041 17.8646H30.9896" stroke="white" stroke-width="2.1875" stroke-linecap="round"/>
</svg>
